# xmcd
#
# Track frame offsets: 
#        150
#        12660
#        23877
#        38077
#        49295
#        63597
#        77075
#        88995
#        100897
#        111812
#        124320
#        138780
#        154050
#        166142
#        180275
#        195120
#        208595
#        221485
#        233835
#        247347
#        260415
#        272575
#        284020
#        297665
#        309910
#        323162
#        334450
#
# Disc length: 4635 seconds
#
# Revision: 2
# Processed by: cddbd v1.5.2PL0 Copyright (c) Steve Scherf et al.
# Submitted via: ExactAudioCopyFreeDBPlugin 1.0
#
DISCID=9312191b
DTITLE=Louis Jordan - Let the Good Times Roll:  The Complete US Decca 
DTITLE=Recordings, 1938-1954 [Bear Family box set]
DYEAR=1992
DGENRE=Rhythm and Blues
TTITLE0=Junco Partner
TTITLE1=Time Marches On
TTITLE2=Azure-Te (Paris Blues)
TTITLE3=Oil Well, Texas
TTITLE4=There's Nothing Else That I Can Do (unissued #1)
TTITLE5=Jordan for President
TTITLE6=The Soon-A Baby (unissued version)
TTITLE7=There's Nothing Else That I Can Do (unissued #2)
TTITLE8=The Soon-A Baby
TTITLE9=You Didn't Want Me Baby
TTITLE10=A Man's Best Friend is a Bed
TTITLE11=I Didn't Know What Time it Was
TTITLE12=It's Better to Wait for Love
TTITLE13=Only Yesterday
TTITLE14=Just Like a Butterfly (That's Caught in the Rain)
TTITLE15=Hog Wash
TTITLE16=House Party
TTITLE17=Everything That's Made of Wood
TTITLE18=I Want You to Be My Baby
TTITLE19=You Know it Too
TTITLE20=Locked Up
TTITLE21=I Gotta Move
TTITLE22=Nobody Knows You When You're Down and Out
TTITLE23=If It's True
TTITLE24=Wake Up Jacob
TTITLE25=Lollypop
TTITLE26=Perdido (instrumental)
EXTD=YEAR: 1992
EXTT0=
EXTT1=
EXTT2=
EXTT3=
EXTT4=
EXTT5=
EXTT6=
EXTT7=
EXTT8=
EXTT9=
EXTT10=
EXTT11=
EXTT12=
EXTT13=
EXTT14=
EXTT15=
EXTT16=
EXTT17=
EXTT18=
EXTT19=
EXTT20=
EXTT21=
EXTT22=
EXTT23=
EXTT24=
EXTT25=
EXTT26=
PLAYORDER=
